<svg width="1937" height="1265" viewBox="0 0 1937 1265" fill="none" xmlns="http://www.w3.org/2000/svg">
<rect width="1937" height="1265" fill="#0095FF"/>
<path d="M901.44 781.005H819.72V665.805C819.72 654.525 817.92 646.605 814.32 642.045C810.96 637.245 804.96 634.845 796.32 634.845C783.6 634.845 771 638.925 758.52 647.085V746.805L790.92 757.605L779.04 781.005H665.28V760.845L697.32 733.845V536.925L665.28 515.685V495.525L735.84 466.725H758.52V618.645L798.84 586.245C805.32 584.325 812.64 583.365 820.8 583.365C839.04 583.365 853.56 588.405 864.36 598.485C875.4 608.325 880.92 621.765 880.92 638.805V746.805L913.32 757.605L901.44 781.005ZM1140.71 781.005H1058.63V749.685L1017.95 781.725C1013.15 783.645 1007.15 784.605 999.948 784.605C976.908 784.605 960.228 778.965 949.908 767.685C939.828 756.405 934.788 742.845 934.788 727.005C934.788 717.645 937.668 708.525 943.428 699.645C949.188 690.525 957.468 682.125 968.268 674.445H1058.63V668.325C1058.63 655.125 1055.03 645.405 1047.83 639.165C1040.63 632.925 1031.03 629.805 1019.03 629.805C1002.23 629.805 980.268 636.405 953.148 649.605L942.348 629.085L992.388 588.765C1004.63 585.165 1018.91 583.365 1035.23 583.365C1062.11 583.365 1082.87 589.485 1097.51 601.725C1112.39 613.965 1119.83 631.725 1119.83 655.005V745.005L1152.23 757.605L1140.71 781.005ZM1018.31 736.365C1030.55 736.365 1043.99 731.325 1058.63 721.245V698.205H1000.67C998.748 701.085 997.308 703.845 996.348 706.485C995.628 708.885 995.268 711.645 995.268 714.765C995.268 720.765 997.308 725.805 1001.39 729.885C1005.71 733.965 1011.35 736.005 1018.31 736.005V736.365ZM1221.72 710.445C1232.04 710.445 1240.44 713.805 1246.92 720.525C1253.64 727.245 1257 735.525 1257 745.365C1257 752.325 1254.6 758.805 1249.8 764.805C1245 770.805 1239 775.605 1231.8 779.205C1224.6 782.805 1217.64 784.605 1210.92 784.605C1200.84 784.605 1192.44 781.365 1185.72 774.885C1179.24 768.165 1176 759.885 1176 750.045C1176 743.085 1178.4 736.605 1183.2 730.605C1188 724.365 1193.88 719.445 1200.84 715.845C1208.04 712.245 1215 710.445 1221.72 710.445Z" fill="white"/>
</svg>
