<svg width="1000" height="1000" viewBox="0 0 1000 1000" fill="none" xmlns="http://www.w3.org/2000/svg">
<rect width="1000" height="1000" fill="#0095FF"/>
<path d="M430.44 649H348.72V533.8C348.72 522.52 346.92 514.6 343.32 510.04C339.96 505.24 333.96 502.84 325.32 502.84C312.6 502.84 300 506.92 287.52 515.08V614.8L319.92 625.6L308.04 649H194.28V628.84L226.32 601.84V404.92L194.28 383.68V363.52L264.84 334.72H287.52V486.64L327.84 454.24C334.32 452.32 341.64 451.36 349.8 451.36C368.04 451.36 382.56 456.4 393.36 466.48C404.4 476.32 409.92 489.76 409.92 506.8V614.8L442.32 625.6L430.44 649ZM669.708 649H587.628V617.68L546.948 649.72C542.148 651.64 536.148 652.6 528.948 652.6C505.908 652.6 489.228 646.96 478.908 635.68C468.828 624.4 463.788 610.84 463.788 595C463.788 585.64 466.668 576.52 472.428 567.64C478.188 558.52 486.468 550.12 497.268 542.44H587.628V536.32C587.628 523.12 584.028 513.4 576.828 507.16C569.628 500.92 560.028 497.8 548.028 497.8C531.228 497.8 509.268 504.4 482.148 517.6L471.348 497.08L521.388 456.76C533.628 453.16 547.908 451.36 564.228 451.36C591.108 451.36 611.868 457.48 626.508 469.72C641.388 481.96 648.828 499.72 648.828 523V613L681.228 625.6L669.708 649ZM547.308 604.36C559.548 604.36 572.988 599.32 587.628 589.24V566.2H529.668C527.748 569.08 526.308 571.84 525.348 574.48C524.628 576.88 524.268 579.64 524.268 582.76C524.268 588.76 526.308 593.8 530.388 597.88C534.708 601.96 540.348 604 547.308 604V604.36ZM750.722 578.44C761.042 578.44 769.442 581.8 775.922 588.52C782.642 595.24 786.002 603.52 786.002 613.36C786.002 620.32 783.602 626.8 778.802 632.8C774.002 638.8 768.002 643.6 760.802 647.2C753.602 650.8 746.642 652.6 739.922 652.6C729.842 652.6 721.442 649.36 714.722 642.88C708.242 636.16 705.002 627.88 705.002 618.04C705.002 611.08 707.402 604.6 712.202 598.6C717.002 592.36 722.882 587.44 729.842 583.84C737.042 580.24 744.002 578.44 750.722 578.44Z" fill="white"/>
</svg>
